<?xml version="1.0" encoding="UTF-8"?>
<svg id="Layer_1" data-name="Layer 1" xmlns="http://www.w3.org/2000/svg" viewBox="0 0 225.33 150.82">
  <defs>
    <style>
      .cls-1 {
        fill: #2f5d7d;
      }

      .cls-2 {
        fill: #b8e0cf;
      }

      .cls-3 {
        fill: #f9f9fa;
      }

      .cls-4 {
        fill: #cb2026;
      }

      .cls-5 {
        fill: #c4964a;
      }

      .cls-6 {
        fill: #71757a;
      }

      .cls-7 {
        fill: #156f64;
      }

      .cls-8 {
        fill: #fff;
      }
    </style>
  </defs>
  <path class="cls-1" d="M53.15,21.35h-4.01c-.13-3.15-.82-6.69-1.52-9.76-.61-2.75-2.22-6.61-2.47-9.14-.11-1.1-.11-2.07,1.04-2.45h1.6c.32.21.68.3.99.55,1.56,1.25,2.45,6.12,2.83,8.11.8,4.18,1.22,8.45,1.54,12.69Z"/>
  <path class="cls-7" d="M14.42,56.59v3.72H2.22c-1.16-.15-1.92-.19-2.22-1.46v-1.06c.61-.99,2.07-1.1,3.15-1.2,3.59-.36,7.54-.09,11.13,0h.13Z"/>
  <path class="cls-5" d="M69.82,91.88c-.08,5.22.08,12.71-1.22,17.61-2.51,9.59-13.68,5.6-21.01,6.48l-6.21-.4c.34-2.45.4-4.94.66-7.41,1.8-15.94,6.19-31.42,9.1-47.16l.99-.15c5.85.08,11.7-.13,17.55-.13-.25,10.35.32,20.8.13,31.17Z"/>
  <path class="cls-7" d="M30.98,60.44c-3.99,18.29-7.75,36.72-9.48,55.39-7.2-1.29-6.74-5.45-6.93-11.42-.47-14.53-.15-29.38-.15-43.97h16.56Z"/>
  <path class="cls-4" d="M33.11,39.96c-.08.99-.02,1.46-1.04,1.75-1.2.3-3.8.28-5.15.32-4.16.11-8.34-.1-12.5,0v4.27c-1.65.13-5.22.06-6.8-.34-2.05-.49-1.94-3.17-.02-3.76.89-.28,2.58-.38,3.55-.44,1.08-.06,2.18.04,3.27,0,.11-3.53-.13-7.09,0-10.62.19-4.9.76-9.04,6.5-9.78,3.55-.47,8.66-.17,12.33-.02-.17,6.12.36,12.56-.13,18.61Z"/>
  <path class="cls-4" d="M37.51,21.75c-1.41-.11-2.85-.34-4.27-.4.04-1.31.13-5.6,1.52-6.17.44-.19,1.1.02,1.46.32,1.1.87,1.25,4.84,1.29,6.25Z"/>
  <path class="cls-1" d="M53.81,33.3c.02-3.95.06-7.9-.53-11.81,4.1.21,8.22.23,12.31.7.87.17,2.7.97,3.17,1.77.72,1.2.57,4.27.66,5.74.28,4.12.49,8.21.53,12.35h-16.41l.27-8.74Z"/>
  <path class="cls-8" d="M34.4,63.67c-2.07,12.14-5.11,24.09-6.99,36.26-.82,5.36-1.31,10.85-2.03,16.16-1.14-.08-2.51,0-3.61-.13-.13-.02-.23-.13-.27-.13,1.73-18.67,5.49-37.1,9.48-55.39H14.42v-3.99c5.28.15,10.69-.23,15.96,0,1.01.04,2.6.09,3.55.32.46.1,1.08.27,1.2.8.27,1.44-.46,4.54-.72,6.1Z"/>
  <path class="cls-8" d="M69.69,60.71c-5.85,0-11.7.21-17.55.13l-.99.15c-2.91,15.75-7.29,31.23-9.1,47.16-.27,2.47-.32,4.96-.66,7.41l-.13.13-3.34.27h-.13c0-5.74.46-10.66,1.39-16.3,1.99-12.18,4.67-25.09,7.5-37.08.23-1.03.87-4.46,1.52-5.01.32-.28,1.1-.42,1.54-.46,5.62-.61,12.59-.13,18.37-.13h.27l.06.13.08-.13h1.33c.11,1.25-.09,2.49-.13,3.72Z"/>
  <path class="cls-5" d="M110.95,56.98v3.99c-5.85,0-11.72.02-17.57,0-7.86-.02-15.78-.25-23.69-.27.04-1.23.25-2.47.13-3.72h41.12Z"/>
  <path class="cls-5" d="M190.64,57.71l.46-.21c8.23,0,16.48-.05,24.7.15,2.14.05,4.4-.13,6.53.15,1.04.13,2.06.22,2.1,1.52.08,2.5-3.68,1.99-5.29,2.06-9.31.42-18.7-.03-28.03.15l-.46-.21v-3.6Z"/>
  <path class="cls-5" d="M45.57,149.7c-.72,1.65-2.26,1.31-3.25.09-1.79-2.2-2.79-9.59-3.17-12.56-.91-7.01-1.35-14.21-1.37-21.27h.13l3.34-.27c.32.38.02.95,0,1.41-.36,7.52.32,16.45,1.79,23.84.4,2.01.74,4.18,1.52,6.08.3.7,1.29,2.01,1.01,2.68Z"/>
  <path class="cls-8" d="M37.4,41.16c-.06.95-.13,2.39-.32,3.31-.06.36-.17.89-.42,1.18-.49.59-2.55.76-3.34.8-6.04.34-12.37-.27-18.44,0l-.46-.13v-4.27c4.16-.1,8.34.11,12.5,0,1.35-.04,3.95-.02,5.15-.32,1.03-.28.97-.76,1.04-1.75.49-6.06-.04-12.5.13-18.61,1.42.06,2.87.28,4.27.4.02.27,0,.53,0,.8.15,6,.13,12.63-.11,18.61Z"/>
  <path class="cls-8" d="M70.09,42.36c0,1.27-.25,2.53-.27,3.8-.65.25-1.18.02-1.73.02-5.47-.1-11.76.65-17.15-.02-.23-.04-.97-.17-1.1-.28-.76-1.5-.49-3.23-.57-4.84-.27-6.23.02-12.5-.13-18.75-.02-.3,0-.63,0-.93h4.01l.13.13c.59,3.91.55,7.86.53,11.81l-.27,8.74h16.41s.13.15.13.32Z"/>
  <path class="cls-7" d="M25.38,116.1c-.34,2.49-.63,4.98-1.04,7.45-.38,1.04-1.92.87-2.85.78-.36-.27.13-3.02.15-3.61.08-1.58-.02-3.17.13-4.75,1.1.13,2.47.06,3.61.13Z"/>
  <polygon class="cls-2" points="14.42 56.45 14.42 56.59 14.28 56.59 14.42 56.45"/>
  <polygon class="cls-6" points="68.49 56.98 68.42 57.12 68.36 56.98 68.49 56.98"/>
  <path class="cls-3" d="M207.32,40.3v1.27c-.1.55-2.15,1.41-2.74,1.4-1.53-.03-1.59-2.67,0-2.67h2.74Z"/>
  <g>
    <path class="cls-8" d="M76.05,45.11v-1.71l1.77-.33v-12.1l-1.77-.33v-1.73h12.6v4.21h-2.18l-.18-2.04h-5.67v4.94h5.78v2.17h-5.78v4.87l1.77.33v1.71h-6.34Z"/>
    <path class="cls-8" d="M89.67,45.11v-1.71l1.67-.33v-7.94l-1.77-.33v-1.73h4.57v9.99l1.66.33v1.71h-6.13ZM91.23,30.35v-2.59h2.92v2.59h-2.92Z"/>
    <path class="cls-8" d="M96.85,45.11v-1.71l1.67-.33v-7.94l-1.76-.33v-1.73h4.34l.14,1.51.02.24c.32-.64.71-1.13,1.17-1.47s1.01-.51,1.63-.51c.21,0,.43.02.66.06s.42.08.57.12l-.32,2.59-1.57-.09c-.51-.03-.93.07-1.26.3s-.61.55-.83.96v6.28l1.67.33v1.71h-6.14Z"/>
    <path class="cls-8" d="M111.15,45.35c-.86,0-1.66-.08-2.41-.25s-1.49-.41-2.24-.74l-.03-3.18h2.01l.42,1.74c.32.14.65.25.98.33s.71.12,1.13.12c.8,0,1.37-.14,1.7-.42s.5-.63.5-1.05-.17-.74-.52-1.03-1-.53-1.98-.74c-1.44-.31-2.5-.77-3.18-1.36s-1.02-1.37-1.02-2.33c0-.66.18-1.26.53-1.79s.87-.96,1.56-1.29,1.53-.48,2.53-.48c.91,0,1.72.09,2.43.28s1.31.44,1.81.75l.07,3.06h-1.99l-.35-1.59c-.23-.16-.5-.29-.8-.38s-.65-.13-1.05-.13c-.62,0-1.1.14-1.46.41s-.53.61-.53,1.02c0,.24.06.45.17.65s.34.37.67.53.81.31,1.45.46c1.57.36,2.69.84,3.36,1.42s1.01,1.36,1.01,2.33c0,1.08-.39,1.96-1.18,2.65s-1.99,1.04-3.61,1.04Z"/>
    <path class="cls-8" d="M121.75,45.33c-1.02,0-1.82-.29-2.39-.86s-.86-1.49-.86-2.75v-6.63h-1.76v-2h1.76v-2.93h2.79v2.93h2.38v2h-2.38v6.63c0,.51.1.88.32,1.12s.5.35.86.35c.21,0,.44-.02.69-.06s.46-.07.62-.11l.29,1.97c-.33.1-.7.18-1.12.24s-.82.1-1.21.1Z"/>
    <path class="cls-8" d="M130.29,45.11v-1.71l1.77-.33v-12.1l-1.77-.33v-1.73h6.48v1.73l-1.9.33v12h5.06l.19-2.45h2.15v4.6h-11.98Z"/>
    <path class="cls-8" d="M148.26,45.35c-1.29,0-2.3-.41-3.02-1.23s-1.09-2.09-1.09-3.82v-5.16l-1.36-.33v-1.73h4.16v7.25c0,1.04.17,1.77.5,2.19s.84.63,1.53.63c.61,0,1.13-.12,1.55-.36s.77-.58,1.02-1.03v-6.61l-1.51-.33v-1.73h4.32v9.99l1.42.33v1.71h-3.91l-.19-1.64c-.38.6-.86,1.06-1.44,1.39s-1.24.48-1.99.48Z"/>
    <path class="cls-8" d="M161.3,45.33c-1.02,0-1.82-.29-2.39-.86s-.86-1.49-.86-2.75v-6.63h-1.76v-2h1.76v-2.93h2.79v2.93h2.38v2h-2.38v6.63c0,.51.11.88.32,1.12s.5.35.86.35c.21,0,.44-.02.7-.06s.46-.07.62-.11l.29,1.97c-.33.1-.7.18-1.12.24s-.82.1-1.21.1Z"/>
    <path class="cls-8" d="M164.37,45.11v-1.71l1.67-.33v-13.26l-1.77-.33v-1.73h4.56v6.88c.39-.56.88-1,1.46-1.31s1.23-.47,1.96-.47c1.24,0,2.21.4,2.92,1.19s1.06,2.01,1.06,3.66v5.38l1.67.33v1.71h-6.04v-1.71l1.58-.33v-5.4c0-.92-.19-1.58-.56-1.99s-.92-.61-1.64-.61c-.51,0-.97.11-1.39.34s-.75.54-1.03.95v6.71l1.58.33v1.71h-6.04Z"/>
    <path class="cls-8" d="M184.31,45.35c-1.14,0-2.12-.25-2.97-.76s-1.5-1.21-1.96-2.11-.7-1.93-.7-3.08v-.47c0-1.17.23-2.21.68-3.13s1.09-1.63,1.89-2.16,1.71-.79,2.74-.79c1.09,0,2.01.22,2.74.66s1.3,1.06,1.68,1.86.57,1.77.57,2.9v1.6h-7.39l-.02.06c.03.63.16,1.19.4,1.68s.57.88,1,1.16.96.42,1.59.42,1.25-.09,1.78-.27,1.03-.43,1.48-.76l.88,1.76c-.47.4-1.08.74-1.81,1.01s-1.59.41-2.57.41ZM181.64,37.9h4.66v-.29c0-.53-.08-.99-.24-1.39s-.41-.71-.75-.93-.77-.33-1.29-.33c-.45,0-.85.13-1.19.38s-.61.6-.82,1.03-.34.93-.42,1.47l.03.06Z"/>
    <path class="cls-8" d="M190.36,45.11v-1.71l1.67-.33v-7.94l-1.76-.33v-1.73h4.34l.14,1.51.02.24c.32-.64.71-1.13,1.17-1.47s1.01-.51,1.63-.51c.21,0,.43.02.66.06s.42.08.57.12l-.32,2.59-1.57-.09c-.51-.03-.93.07-1.26.3s-.61.55-.83.96v6.28l1.67.33v1.71h-6.14Z"/>
    <path class="cls-8" d="M203.46,45.35c-1.22,0-2.18-.32-2.86-.95s-1.02-1.5-1.02-2.6.46-2.06,1.39-2.76,2.25-1.06,3.97-1.06h1.84v-1.01c0-.64-.19-1.15-.57-1.52s-.94-.57-1.66-.57c-.42,0-.78.05-1.1.15s-.6.24-.86.43l-.26,1.62h-2.06l-.02-2.97c.59-.39,1.25-.69,1.98-.92s1.54-.34,2.43-.34c1.53,0,2.73.36,3.61,1.07s1.32,1.74,1.32,3.08v5.31c0,.16,0,.32,0,.48s.01.31.03.46l1.22.16v1.71h-3.66c-.07-.26-.14-.51-.21-.76s-.11-.49-.14-.73c-.4.5-.88.92-1.45,1.24s-1.21.48-1.92.48ZM204.1,43.18c.56,0,1.09-.13,1.58-.4s.86-.6,1.1-1v-2.01h-1.87c-.84,0-1.47.19-1.9.58s-.64.84-.64,1.36c0,.47.15.83.45,1.08s.72.38,1.28.38Z"/>
    <path class="cls-8" d="M211.8,45.11v-1.71l1.67-.33v-7.94l-1.76-.33v-1.73h4.34l.14,1.75c.4-.62.9-1.11,1.5-1.45s1.27-.52,2.03-.52c1.24,0,2.2.38,2.89,1.14s1.04,1.95,1.04,3.57v5.51l1.67.33v1.71h-6.04v-1.71l1.57-.33v-5.49c0-.91-.18-1.56-.55-1.94s-.91-.57-1.62-.57c-.54,0-1.01.12-1.42.36s-.73.58-.98,1.01v6.63l1.52.33v1.71h-6Z"/>
    <path class="cls-8" d="M120.36,65.15c-1.6,0-2.96-.34-4.09-1.02-1.13-.68-2-1.63-2.59-2.85s-.9-2.64-.9-4.26v-.41c0-1.58.3-2.98.89-4.2s1.44-2.18,2.55-2.88,2.43-1.05,3.96-1.05c1.08,0,2.07.16,2.99.48s1.72.77,2.4,1.35v3.74h-2.14l-.29-2.5c-.24-.18-.52-.33-.81-.46s-.62-.22-.97-.29-.74-.1-1.15-.1c-.97,0-1.8.24-2.5.73s-1.22,1.18-1.59,2.06-.55,1.92-.55,3.11v.43c0,1.23.19,2.29.58,3.18s.94,1.57,1.66,2.04,1.59.71,2.6.71c.49,0,.97-.06,1.45-.17s.9-.26,1.26-.45l.3-2.27h2.11v3.72c-.62.41-1.39.74-2.29.99s-1.87.38-2.91.38Z"/>
    <path class="cls-8" d="M126.82,64.92v-1.71l1.67-.33v-13.26l-1.77-.33v-1.73h4.56v6.88c.39-.56.88-1,1.46-1.31s1.23-.47,1.96-.47c1.24,0,2.21.39,2.92,1.18s1.06,2.01,1.06,3.66v5.38l1.67.33v1.71h-6.04v-1.71l1.58-.33v-5.4c0-.92-.19-1.58-.56-1.99s-.92-.61-1.64-.61c-.51,0-.97.11-1.39.34s-.75.55-1.03.95v6.71l1.58.33v1.71h-6.04Z"/>
    <path class="cls-8" d="M145.97,65.15c-1.29,0-2.3-.41-3.02-1.23s-1.09-2.09-1.09-3.82v-5.16l-1.36-.33v-1.73h4.16v7.25c0,1.04.17,1.77.5,2.19s.84.63,1.53.63c.61,0,1.13-.12,1.55-.36s.77-.58,1.02-1.03v-6.61l-1.51-.33v-1.73h4.32v9.99l1.42.33v1.71h-3.91l-.19-1.64c-.38.6-.86,1.06-1.44,1.38s-1.24.49-1.99.49Z"/>
    <path class="cls-8" d="M154.61,64.92v-1.71l1.67-.33v-7.94l-1.76-.33v-1.73h4.34l.14,1.51.02.24c.32-.64.71-1.13,1.17-1.47s1.01-.51,1.63-.51c.21,0,.43.02.66.06s.42.08.57.12l-.32,2.59-1.57-.09c-.51-.03-.93.07-1.26.3s-.61.55-.83.96v6.28l1.67.33v1.71h-6.14Z"/>
    <path class="cls-8" d="M169.21,65.15c-1.13,0-2.11-.26-2.93-.78s-1.47-1.23-1.91-2.14-.67-1.96-.67-3.14v-.39c0-1.16.22-2.2.67-3.12s1.08-1.63,1.91-2.16,1.8-.78,2.93-.78c1.03,0,1.93.16,2.69.49s1.39.74,1.88,1.23v3.22s-2.13,0-2.13,0l-.41-2.13c-.21-.22-.47-.39-.79-.52s-.67-.19-1.05-.19c-.62,0-1.14.17-1.57.5s-.76.79-.99,1.38-.34,1.28-.34,2.07v.39c0,.85.12,1.56.35,2.14s.55,1.02.96,1.31.88.45,1.42.45c.65,0,1.17-.17,1.57-.52s.67-.83.8-1.45h2.43l.03.07c-.09.79-.32,1.48-.7,2.1s-.9,1.09-1.58,1.44-1.53.52-2.57.52Z"/>
    <path class="cls-8" d="M175.06,64.92v-1.71l1.67-.33v-13.26l-1.77-.33v-1.73h4.56v6.88c.39-.56.88-1,1.46-1.31s1.23-.47,1.96-.47c1.24,0,2.21.39,2.92,1.18s1.06,2.01,1.06,3.66v5.38l1.67.33v1.71h-6.04v-1.71l1.58-.33v-5.4c0-.92-.19-1.58-.56-1.99s-.92-.61-1.64-.61c-.51,0-.97.11-1.39.34s-.75.55-1.03.95v6.71l1.58.33v1.71h-6.04Z"/>
  </g>
  <g>
    <path class="cls-8" d="M78.05,90.74v-19.34h1.77v10.42h.17l9.44-10.42h2.32l-8.26,8.94,8.23,10.4h-2.15l-7.17-9.17-2.58,2.89v6.28h-1.77Z"/>
    <path class="cls-8" d="M96.84,71.4v19.34h-1.77v-19.34h1.77Z"/>
    <path class="cls-8" d="M117.04,71.4v19.34h-1.72l-11.43-16.19h-.15v16.19h-1.77v-19.34h1.71l11.46,16.22h.15v-16.22h1.74Z"/>
    <path class="cls-8" d="M135.56,77.44c-.18-.64-.44-1.24-.78-1.81s-.76-1.06-1.26-1.48c-.5-.42-1.08-.76-1.73-1s-1.38-.36-2.18-.36c-1.26,0-2.39.33-3.38.98s-1.78,1.6-2.36,2.83c-.58,1.24-.86,2.72-.86,4.46s.29,3.21.87,4.45c.58,1.23,1.37,2.18,2.39,2.84,1.01.66,2.17.99,3.47.99,1.19,0,2.24-.27,3.15-.79.91-.53,1.62-1.28,2.14-2.27s.76-2.15.75-3.51l.57.18h-6.19v-1.59h7.35v1.59c0,1.65-.33,3.08-1,4.28-.67,1.2-1.58,2.13-2.75,2.79-1.16.65-2.5.98-4.01.98-1.69,0-3.16-.41-4.43-1.22s-2.25-1.97-2.95-3.46c-.7-1.49-1.05-3.24-1.05-5.25,0-1.52.2-2.89.6-4.11s.97-2.27,1.71-3.14c.74-.87,1.62-1.53,2.63-2s2.14-.69,3.36-.69c1.06,0,2.03.17,2.9.5.88.33,1.65.79,2.32,1.37.67.58,1.22,1.25,1.65,2.01.43.76.72,1.57.87,2.42h-1.81Z"/>
    <path class="cls-8" d="M152.4,76.24c-.11-1.08-.58-1.93-1.43-2.57-.84-.63-1.91-.95-3.18-.95-.9,0-1.69.15-2.37.46-.68.31-1.22.73-1.6,1.28-.39.55-.58,1.16-.58,1.86,0,.51.11.96.33,1.34.22.39.52.71.89.99s.79.51,1.25.7.92.36,1.38.49l2.04.59c.62.17,1.23.39,1.85.65.62.26,1.18.6,1.7.99.51.4.93.89,1.24,1.47s.47,1.27.47,2.07c0,1.03-.27,1.96-.8,2.78-.53.83-1.3,1.48-2.3,1.96-1,.48-2.2.72-3.6.72-1.32,0-2.46-.22-3.43-.66-.97-.43-1.73-1.04-2.29-1.82-.55-.77-.86-1.67-.93-2.69h1.81c.06.76.31,1.41.75,1.94.44.53,1.01.93,1.72,1.2.7.27,1.49.41,2.36.41.96,0,1.82-.16,2.57-.49.75-.32,1.34-.78,1.78-1.36.43-.58.65-1.26.65-2.03,0-.66-.17-1.21-.51-1.65-.34-.45-.81-.82-1.42-1.12-.61-.3-1.31-.57-2.11-.8l-2.31-.68c-1.52-.45-2.69-1.08-3.53-1.88-.84-.8-1.26-1.82-1.26-3.06,0-1.04.28-1.95.84-2.74.56-.79,1.31-1.41,2.26-1.85.96-.45,2.03-.67,3.22-.67s2.27.22,3.19.66,1.66,1.05,2.2,1.82c.55.77.84,1.65.87,2.63h-1.71Z"/>
    <path class="cls-8" d="M158.66,71.4l6.04,17.05h.17l6.04-17.05h1.85l-7.04,19.34h-1.89l-7.04-19.34h1.85Z"/>
    <path class="cls-8" d="M177.85,71.4v19.34h-1.77v-19.34h1.77Z"/>
    <path class="cls-8" d="M182.98,90.74v-19.34h1.77v17.76h9.22v1.58h-10.98Z"/>
    <path class="cls-8" d="M197.94,90.74v-19.34h1.77v17.76h9.22v1.58h-10.98Z"/>
    <path class="cls-8" d="M212.9,90.74v-19.34h11.22v1.59h-9.45v7.28h8.86v1.59h-8.86v7.3h9.64v1.58h-11.41Z"/>
  </g>
</svg>